<?xml version="1.0" encoding="UTF-8"?><svg id="Calque_1" xmlns="http://www.w3.org/2000/svg" viewBox="0 0 451.82 197.98"><g id="Face_Nord_Graphisme" style="isolation:isolate;"><g style="isolation:isolate;"><path d="M37.43,9.12v8.42H14.53v19.9h22.91v8.42H14.53v28.36H6.1V9.12h31.33Z"/><path d="M83.09,35.28v-2.93h8.46v41.91h-8.46v-5.25c-4.07,4.21-8.79,6.31-14.16,6.31-6.4,0-11.86-2.26-16.38-6.77s-6.77-9.98-6.77-16.38,2.26-11.86,6.77-16.38,9.98-6.77,16.38-6.77c5.37,0,10.09,2.09,14.16,6.27Zm0,19.98v-6.18c-.49-2.63-1.79-5.02-3.91-7.16-2.85-2.82-6.27-4.23-10.25-4.23s-7.44,1.41-10.27,4.23c-2.83,2.82-4.25,6.24-4.25,10.25s1.42,7.4,4.25,10.23c2.83,2.83,6.26,4.25,10.27,4.25s7.41-1.41,10.25-4.23c2.12-2.14,3.42-4.53,3.91-7.16Z"/><path d="M136.96,59.86l8.42,3.01c-2.06,2.85-3.55,4.73-4.47,5.66-4.53,4.53-10,6.79-16.4,6.79s-11.83-2.26-16.36-6.79c-4.53-4.53-6.8-10-6.8-16.4s2.26-11.87,6.8-16.4,9.98-6.79,16.36-6.79,11.87,2.27,16.4,6.79c.92,.92,2.41,2.78,4.47,5.58l-8.42,3.09c-1.09-1.33-1.82-2.18-2.2-2.56-2.82-2.82-6.24-4.23-10.25-4.23s-7.4,1.42-10.23,4.25c-2.83,2.83-4.25,6.26-4.25,10.27s1.42,7.4,4.25,10.23c2.83,2.83,6.25,4.25,10.23,4.25s7.45-1.41,10.29-4.23c.35-.38,1.07-1.22,2.16-2.52Z"/><path d="M168.17,64.74c1.41,1.25,3.97,1.87,7.69,1.87,4.01,0,7.45-1.41,10.29-4.23,.35-.38,1.07-1.22,2.16-2.52l8.42,3.01c-2.06,2.85-3.55,4.73-4.48,5.66-4.53,4.53-10,6.79-16.4,6.79s-11.83-2.26-16.36-6.79-6.79-10-6.79-16.4,2.26-11.87,6.79-16.4c4.53-4.53,9.98-6.79,16.36-6.79,5.48,0,10.28,1.66,14.4,4.96,.68,.57,1.34,1.18,1.99,1.83,.27,.27,1.04,1.13,2.32,2.56l-4.23,4.27-22.18,22.18Zm14.08-26.04c-.95-.73-3.08-1.1-6.39-1.1-3.99,0-7.4,1.42-10.23,4.25s-4.25,6.26-4.25,10.27c0,3.28,.37,5.41,1.1,6.39l19.78-19.82Z"/><path d="M235.31,9.12h7.69l26.86,46.47V9.12h8.46V74.22h-7.36l-27.22-47.04v47.04h-8.42V9.12Z"/><path d="M311.24,28.93c6.4,0,11.86,2.27,16.38,6.79,4.52,4.53,6.77,10,6.77,16.4s-2.26,11.87-6.77,16.4-9.98,6.79-16.38,6.79-11.83-2.26-16.36-6.79-6.79-10-6.79-16.4,2.26-11.87,6.79-16.4c4.53-4.53,9.98-6.79,16.36-6.79Zm-10.27,12.94c-2.83,2.85-4.25,6.27-4.25,10.25s1.42,7.43,4.25,10.25,6.26,4.23,10.27,4.23,7.44-1.41,10.27-4.23c2.83-2.82,4.25-6.24,4.25-10.25s-1.42-7.41-4.25-10.25c-2.83-2.85-6.26-4.27-10.27-4.27s-7.44,1.42-10.27,4.27Z"/><path d="M352.58,38c3.15-4.26,7.01-6.5,11.6-6.71v8.75c-3.07,.16-5.51,1.15-7.32,2.97-2.74,2.71-4.16,5.94-4.27,9.68v21.53h-8.42V32.35h8.42v5.66Z"/><path d="M408.45,35.24V9.12h8.46V74.22h-8.46v-5.21c-4.07,4.21-8.8,6.31-14.2,6.31-6.4,0-11.86-2.26-16.38-6.79s-6.78-10-6.78-16.4,2.26-11.87,6.78-16.4c4.52-4.53,9.98-6.79,16.38-6.79,5.4,0,10.13,2.1,14.2,6.31Zm0,20.02v-6.23c-.49-2.63-1.8-5.02-3.95-7.16-2.82-2.85-6.24-4.27-10.25-4.27s-7.44,1.42-10.27,4.27c-2.83,2.85-4.25,6.27-4.25,10.25s1.42,7.43,4.25,10.25c2.83,2.82,6.26,4.23,10.27,4.23s7.43-1.41,10.25-4.23c2.14-2.14,3.46-4.52,3.95-7.12Z"/></g><g style="isolation:isolate;"><path d="M61.32,165.31c-6.7,6.4-14.36,9.6-22.99,9.6-9.2,0-17.04-3.24-23.52-9.72s-9.72-14.32-9.72-23.52,3.24-17.01,9.72-23.52c6.48-6.51,14.32-9.77,23.52-9.77,8.6,0,16.75,3.51,24.45,10.54l-6.31,5.74c-5.81-5.15-11.85-7.73-18.15-7.73-6.81,0-12.63,2.41-17.48,7.24-4.84,4.83-7.26,10.66-7.26,17.5s2.42,12.71,7.26,17.54c4.84,4.83,10.67,7.24,17.48,7.24,5.86,0,10.71-1.55,14.57-4.64v-19.65h8.42v23.15Z"/><path d="M82.4,138c3.15-4.26,7.01-6.5,11.6-6.71v8.75c-3.07,.16-5.51,1.15-7.32,2.97-2.74,2.71-4.16,5.94-4.27,9.68v21.53h-8.42v-41.87h8.42v5.66Z"/><path d="M138.47,135.28v-2.93h8.46v41.91h-8.46v-5.25c-4.07,4.21-8.79,6.31-14.16,6.31-6.4,0-11.86-2.26-16.38-6.77s-6.77-9.98-6.77-16.38,2.26-11.86,6.77-16.38,9.98-6.77,16.38-6.77c5.37,0,10.09,2.09,14.16,6.27Zm0,19.98v-6.18c-.49-2.63-1.79-5.02-3.9-7.16-2.85-2.82-6.27-4.23-10.25-4.23s-7.44,1.41-10.28,4.23c-2.83,2.82-4.25,6.24-4.25,10.25s1.42,7.4,4.25,10.23c2.83,2.83,6.26,4.25,10.28,4.25s7.4-1.41,10.25-4.23c2.12-2.14,3.42-4.53,3.9-7.16Z"/><path d="M168.42,169.01v19.29h-8.42v-55.95h8.42v3.78c4.07-4.77,8.8-7.16,14.2-7.16,6.4,0,11.86,2.26,16.38,6.77s6.78,9.98,6.78,16.38-2.26,11.87-6.78,16.4-9.98,6.79-16.38,6.79c-5.4,0-10.13-2.1-14.2-6.31Zm0-20.14v6.55c.51,2.58,1.83,4.91,3.95,7,2.82,2.82,6.24,4.23,10.25,4.23s7.44-1.42,10.27-4.25c2.83-2.83,4.25-6.26,4.25-10.27s-1.42-7.41-4.25-10.25-6.26-4.27-10.27-4.27-7.43,1.42-10.25,4.27c-2.12,2.09-3.43,4.42-3.95,7Z"/><path d="M215.94,109.12h8.46v27.75c2.36-4.53,5.78-6.79,10.25-6.79s8.05,1.61,10.72,4.82c2.67,3.21,4.05,7.25,4.13,12.11v27.22h-8.42v-26.9c0-2.41-.69-4.48-2.05-6.21-1.37-1.72-3.53-2.58-6.49-2.58-3.5,0-6.21,1.87-8.14,5.62v30.07h-8.46V109.12Z"/><path d="M270.79,116.85c1.17,1.14,1.75,2.54,1.75,4.19s-.58,3.05-1.75,4.19c-1.17,1.14-2.56,1.71-4.19,1.71s-2.98-.57-4.15-1.71c-1.17-1.14-1.75-2.54-1.75-4.19s.58-3.05,1.75-4.19c1.17-1.14,2.55-1.71,4.15-1.71s3.02,.57,4.19,1.71Zm.04,15.5v41.87h-8.42v-41.87h8.42Z"/><path d="M292.19,165.23c1,.98,2.2,1.46,3.58,1.46s2.57-.49,3.56-1.46,1.49-2.18,1.49-3.62-.49-2.56-1.46-3.54c-.68-.68-2.13-1.72-4.35-3.13-3.04-1.65-5.2-3.12-6.47-4.39-2.22-2.22-3.34-4.9-3.34-8.02s1.11-5.84,3.34-8.08c2.22-2.24,4.91-3.36,8.06-3.36s5.76,1.06,7.85,3.17c1.49,1.49,2.44,3.16,2.85,5l-8.18,2.36c-.19-.68-.38-1.12-.57-1.34-.49-.49-1.14-.73-1.95-.73s-1.51,.29-2.1,.88-.88,1.28-.88,2.1,.29,1.5,.85,2.08c.51,.49,1.68,1.32,3.5,2.48,3.36,1.85,5.8,3.53,7.32,5.05,2.63,2.66,3.95,5.82,3.95,9.48s-1.31,6.94-3.93,9.58c-2.62,2.64-5.8,3.97-9.54,3.97s-6.89-1.33-9.52-3.99c-1.82-1.82-3.01-4.08-3.58-6.79l8.38-1.79c.24,1.25,.62,2.13,1.14,2.65Z"/><path d="M319.62,132.35h8.42v3.91c1.63-4.1,4.76-6.14,9.4-6.14s7.2,2.33,7.77,7c1.33-4.67,4.99-7,10.99-7s8.87,3.59,8.87,10.78v33.33h-8.46v-29.46c0-4.12-1.67-6.18-5-6.18-1.38,0-2.58,.49-3.58,1.46s-1.5,4.26-1.5,9.85v24.33h-8.42l.04-29.46c0-4.12-1.68-6.18-5.04-6.18-1.38,0-2.58,.49-3.58,1.46-.87,.84-1.36,3.07-1.46,6.67v27.51h-8.42v-41.87Z"/><path d="M390.34,164.74c1.41,1.25,3.97,1.87,7.69,1.87,4.01,0,7.45-1.41,10.29-4.23,.35-.38,1.07-1.22,2.16-2.52l8.42,3.01c-2.06,2.85-3.55,4.73-4.48,5.66-4.53,4.53-10,6.79-16.4,6.79s-11.83-2.26-16.36-6.79-6.79-10-6.79-16.4,2.26-11.87,6.79-16.4c4.53-4.53,9.98-6.79,16.36-6.79,5.48,0,10.28,1.66,14.4,4.96,.68,.57,1.34,1.18,1.99,1.83,.27,.27,1.04,1.13,2.32,2.56l-4.23,4.27-22.18,22.18Zm14.08-26.04c-.95-.73-3.08-1.1-6.39-1.1-3.99,0-7.4,1.42-10.23,4.25s-4.25,6.26-4.25,10.27c0,3.28,.37,5.41,1.1,6.39l19.78-19.82Z"/></g></g></svg>